<?xml version="1.0" encoding="utf-8"?>
<!-- Generator: Adobe Illustrator 23.0.0, SVG Export Plug-In . SVG Version: 6.00 Build 0)  -->
<svg version="1.1" id="Isolation_Mode" xmlns="http://www.w3.org/2000/svg" xmlns:xlink="http://www.w3.org/1999/xlink" x="0px"
	 y="0px" viewBox="0 0 258.7 259.7" style="enable-background:new 0 0 258.7 259.7;" xml:space="preserve">
<style type="text/css">
	.st0{fill:#3E4855;}
</style>
<path class="st0" d="M250.6,139.7c0.7-1.5,1.3-3.2,1.9-4.8c1.9-5,3.9-10,5.6-15.1c0.8-2.3,0.7-4.8-0.2-7.1c-0.8-2.2-1.7-4.4-1.4-6.8
	c0.1-1.2,0-2.6-0.4-3.8c-0.6-1.9-1.4-3.8-2.8-5.4c-3.3-3.7-6.4-7.5-9.6-11.3c-0.7-0.8-1.6-1.3-2.1-2.2c-0.9-1.4-2-2.5-3.4-3.2
	c-1.3-0.7-1.6-1.7-1.5-3c0.1-0.8,0.3-1.6,0.5-2.4c0.2-0.9,0.5-1.7,0.6-2.6c0.1-1.1,0.3-2,1.4-2.5c0.8-0.4,0.8-1.1,0.4-1.8
	c-0.2-0.3-0.3-0.7-0.5-1c-0.4-0.6-1-1-1.6-0.5c-1.1,0.8-1.9,0.5-3,0c-0.8-0.4-1.7-0.5-2.6-0.7c-0.8-0.3-1.7-0.5-2.5-0.9
	c-1-0.5-1.6-1.3-1.6-2.6c0-1.1-0.2-2.2-0.4-3.2c-0.4-1.5-1-3-1.4-4.5c-4.4-13.5-2.9-9.1-5.7-16.3c-1.4-1.7-2.5-3.7-4.6-4.6
	c-5.7-2.5-5.6-7.5-11.8-8.8c-4.3-0.9-20.7-3.7-23.2-3.2c-1.9,0.4-3.1-0.3-4-1.8c-0.4-0.7-1.7-3.7-2-4.1c-0.7-0.8-0.8-1.6-0.5-2.6
	c0.3-1.1-0.1-1.5-1.4-2c-1.3-0.4-1.8-0.4-2.1,0.7c-0.2,0.9-0.9,1.2-1.5,1.5c-1.1,0.5-2.3,1-3.4,1.5c-4,2-5-1-7.1-2.4
	c-19-12.7-21.2-12.6-25-12.1c-2.5,0.4-5,0.9-7.5,0.1c-1.8-0.5-5.3-0.4-7.7,0.9c-4.5,2.5-8.8,5.2-13.2,7.9c-1,0.6-1.9,1.7-2.9,2.1
	c-3.4,1.3-4.2,4.1-6.2,4c-2.9-0.1-7.5-2.7-7.7-3.2c-0.2-0.6-0.3-1.4-1.1-1.4c-0.6,0-1.2,0.2-1.8,0.5c-0.8,0.3-1.2,0.9-0.8,1.7
	c0.5,1,0.1,1.8-0.5,2.6c-0.5,0.7-0.8,1.6-1.2,2.4c-3.1,5.5-2.3,3.1-7.2,3.5c-5.5,0.4-16.8,2.6-20,3.2c-2.7,0.5-5,1.8-6.8,3.9
	c-1.8,2.1-3.6,4-6.2,5.2c-1.4,0.7-4.3,3.6-5.3,6.7c-1.4,4.3-2.9,8.4-4.4,12.7c-0.5,1.6-0.9,3.2-1.4,4.8c-0.3,1.2-0.7,2.3-0.8,3.5
	c-0.3,2.4-1.3,3.7-3.6,4.3c-1.2,0.3-2.4,0.7-3.6,1c-0.7,0.2-1.4,0.4-2.2-0.1c-1-0.6-1.4-0.4-2,0.5c-0.9,1.4-0.9,2.1,0,2.6
	c0.9,0.5,1,1.2,1.3,2c0.3,1.2,0.7,2.5,0.9,3.7c0.2,0.8,0.2,1.6,0.2,2.5c0,1-0.4,1.6-1.3,2.2c-3.5,2-12.1,12.9-15.8,17.4
	c-4.5,5.3-1.4,10-3.9,14.6c-0.2,0.4-0.4,0.8-0.4,1.3c-1.1,5.2-0.6,5.4,5.8,22.2c0.3,0.9,1,1.7,1.2,2.5c1.1,4.6,3.7,4.4,2.7,7
	c-0.8,2.1-2.4,4-2.9,4.9c-0.5,0.9-0.9,1.8-2.2,1.8c-0.3,0-0.8,0.6-0.9,1.1c-0.1,0.6,0,1.3,0.3,1.9c0.2,0.4,0.9,0.9,1.3,0.8
	c1.3-0.4,2,0.3,2.8,1.1c0,0,2.3,1.6,4.3,3.6c1.7,1.7-0.9,3.1-0.2,7.5c0.1,0.5,0,1-0.1,1.5c-0.8,8.3-0.3,0.3-0.4,16.8
	c0,7.2,5.3,8.9,6,13c0.1,0.9,1.8,5.2,4.9,7.1c4.5,2.8,9.1,5.3,13.7,7.8c0.8,0.5,1.8,0.6,2.6,1.2c1.8,1.2,3.6,2.1,5.7,2.5
	c2.1,0.4,2.3,6.1,2.5,7.3c0.1,0.9,0.2,1.7-0.5,2.5c-0.7,0.9-0.6,1.3,0.5,2.2c1.2,1,1.7,1.2,2.4,0.2c0.4-0.6,0.9-0.7,1.4-0.8
	c1.8-0.2,3.5-0.3,5.3-0.3c0.7,0,1.5,0.2,2.2,0.4c0.4,0.2,0.9,0.6,1,1c0.8,1.9,1.8,3.7,3.3,5.1c0.2,0.2,0.4,0.5,0.6,0.8
	c0.9,1.3,1.7,2.7,2.7,3.9c2.6,3.2,5.2,6.2,7.8,9.4c4.6,5.6,8.2,2.7,14.7,7.1c0.1,0.1,0.2,0.2,0.3,0.2c6.9,1.3,1.5,2.1,21.7-1.9
	c1.2-0.2,2.4-0.8,3.7-0.9c1.5-0.2,3-0.5,4.3-1.4c1.5-1.1,3.3-0.4,7.4,4c0.4,0.4,1,1,1,1.5c0,0.8,0.1,1.5,0.8,1.7
	c0.6,0.2,1.4,0.2,2.1,0.1c0.4-0.1,0.9-0.7,0.9-1c-0.1-1.4,0.7-2.1,1.6-2.8c0.6-0.5,1.1-1.2,1.8-1.7c0.9-0.7,1.9-1.5,2.9-2
	c0.4-0.2,1.2-0.2,1.6,0c2.5,1.7,5.5,1.7,8.3,2.4c3.3,0.9,13.5,3,17.7,2.9c2.7-0.1,5-1.2,7.2-2.7c0.6-0.4,1.2-0.7,1.9-0.9
	c2.4-0.6,6.4-0.5,9.3-3.8c3.6-4.2,7-8.5,10.5-12.8c0.7-0.8,1.1-1.9,1.9-2.6c3.5-3.6,2-5.4,4.3-5.7c2-0.3,4.2-0.3,6.2,0
	c3.8,0.5,2.2,2.5,4.9,0.4c0.7-0.5,1-1.3,0.2-2c-1-0.9-0.4-1.7-0.2-5.9c0.2-2.7,1.1-3.8,3.8-4.5c0.5-0.1,1.1-0.3,1.6-0.5
	c1.7-0.9,3.5-1.8,5.2-2.7c13.4-7.6,16.1-8.4,18-13.6c0.5-1.4,1.1-2.9,1.8-4.2c1.2-2,4.5-4.2,4.7-9c0.3-9.2-0.4-20.1-0.4-20.1
	c0.4-6.1-4.1-5.1,4.5-11c0.7-0.5,1.2-1,2.2-0.8c1.1,0.2,1.4-0.3,1.7-1.7c0.2-1.3,0-1.7-1.1-2c-0.9-0.2-1.5-0.7-1.9-1.6
	c-0.3-0.7-0.8-1.3-1.2-1.9c-0.6-0.9-1.2-1.8-1.6-2.8c-0.5-1-0.4-2.1,0.4-3C249.6,141.4,250.2,140.6,250.6,139.7 M229.7,66.9
	c2.1,0.8,4.4,1.4,6.8,2c-0.5,1.9-1.1,3.7-1.4,5.6c-0.3,1.4-0.2,2.9-0.3,4.4c-0.4,4.2-0.6,8.5-1.5,12.7c-1,4.9-2.6,9.7-6.2,13.4
	c-1.1,1.1-2.3,2.1-3.6,3.3c-0.7-0.6-1.4-1.1-2.2-1.7c1.6-1.6,2.7-3.2,3.2-5.3c0.8-3.2,1.6-6.4,2.3-9.7c1.3-5.9,2.3-11.9,4.5-17.6
	c0.1-0.4,0.2-0.7,0.3-1.1c0.3-1.1,0-1.7-1.1-1.9c-1.7-0.4-3.4-0.6-5-1c-3-0.8-6.1-1.7-9.1-2.7c-3.3-1.1-6.6-2.3-9.9-3.3
	c-3.1-0.9-6.3-2.1-9.9-0.8c-0.2-1-0.3-1.8-0.4-2.5c2.1-1.3,4.4-1.8,6.7-2.1c2.9-0.4,5.7,0.1,8.5,0.7c3.9,0.8,7.6,2.1,11.1,4.1
	C224.9,64.8,227.3,65.9,229.7,66.9 M219,182.1c-1-0.4-0.9-1.5-1.3-2.2c-0.5-0.8-0.7-1.8-1.2-2.9c9.8-0.8,9.3-0.5,22.5-9.7
	c0.9,3.1,1.3,6.3,1.1,9.4c-0.2,2.4-0.5,4.8-1,7.2c-0.6,2.8-2.1,5.3-4.1,7.4c-0.7,0.7-1.1,1.7-1.4,2.6c-1.3,3.7-3.2,6.9-6.5,9.1
	c-1.2,0.8-2.2,1.9-3.4,2.7c-2.6,1.8-5.6,2.9-8.7,3.8c0.3-2.7,0.6-5.4,0.8-8c0.2-3.2,0.1-6.4-0.7-9.5c-0.6-2.1-1.5-4-2.5-5.9
	c-0.1-0.3-0.3-0.6-0.6-1.1c2.1-0.2,3.9-1,5.9-0.3c0.8,0.3,1.3-0.1,1.7-0.8C219.8,183.2,219.9,182.5,219,182.1 M215.1,182.5
	c-6.4,0.7-10.4,3.8-20.4,5c-2.4,0.3-4.6-0.3-7-1.4c0-0.7,0.1-1.4,0.1-2.2c2,0,3.8,0,5.7,0c4.7,0.1,9.3-0.7,13.8-2.1
	c1.4-0.4,2.8-1.1,4.4-0.8c1,0.2,1.7-1.6,1.2-2.6c-2.1-3.8-1.6-7.9-4.6-13.4c-2.5-4.6-1-2.9-4.8-8.5c0.7-0.5,1.3-0.9,1.9-1.3
	c2.4,1.5,4.1,3.5,5.1,6.1c3.9,10.1,3,14.1,5.7,19.8c0.2,0.3,0.2,0.7,0.3,1.2C215.9,182.4,215.5,182.5,215.1,182.5 M165.9,228.8
	c-0.6-2.1,1-3.7,1.2-5.7c7.8,6.4,11.2,5.8,23.4,7.3c-2.4,5.3-5.3,8.5-10.1,12.4c-2.4,2-5.3,2.9-8.3,3.3c-3.4,0.5-5.6,4.4-14.1,3.8
	c-3.2-0.3-6.4-0.5-9.5-1.6c-1.1-0.4-2.1-0.8-3.3-1.3c4.2-4.2,8.7-7.5,11.5-14c0.9-2,1.3-4.2,2.1-6.7c1.5,1.3,3.6,1.7,4.5,3.7
	c0.3,0.7,1,0.6,1.7,0.5C165.6,230,166.1,229.5,165.9,228.8 M164.2,225.7c-0.1,0.4-0.3,0.7-0.6,1.3c-0.8-0.5-1.5-0.9-2.1-1.3
	c-1.7-0.9-3.3-1.9-5.1-2.6c-4-1.6-7.9-3.4-11.6-5.5c-2.5-1.4-4.3-3.6-5.6-6.3c0.5-0.6,1.1-1.1,1.6-1.7c3.4,3.3,6.8,6.2,10.8,8.4
	c2.1,1.2,4.4,2,6.5,3.1c0.9,0.4,1.7,1,2.5,1.7c0.5,0.4,1,0.5,1.5,0.3c0.6-0.2,1.3-0.4,1.3-1.2c-0.1-1.3,0.5-2.3,1.1-3.4
	c4.3-7.6,4.8-13.5,5.9-19.6c0.7,0.1,1.4,0.1,2.1,0.2c1.6,5.6,0.2,8.3-5.2,19.5C166.1,220.9,164.9,223.1,164.2,225.7 M93.8,230.2
	c0.6,0.2,1.2,0.2,1.6-0.5c1.1-1.7,2.8-2.6,4.8-3.6c1,9.2,6.9,15,13.3,20.7c-2.7,1.5-5.6,2.3-8.5,2.8c-13.3,1.9-14.2-3-18.4-3.5
	c-4-0.5-7.5-2-10.4-5c-1.6-1.8-3.5-3.3-4.9-5.3c-1.2-1.7-2.9-3.3-3.1-5.4c4.1-0.5,8.2-0.8,12.2-1.5c4.1-0.7,7.6-2.9,11-5.9
	c0.6,2.1,1.7,3.7,1.4,5.7C92.7,229.4,93,229.9,93.8,230.2 M96.1,226.4c-0.9,0.5-1.4,0.5-1.6-0.6c-0.8-3.7-3-6.7-4.5-10
	c-1.3-3-2.6-5.9-3.7-9c-0.9-2.5-0.8-5.1,0-7.9c0.8,0,1.5-0.1,1.9-0.1c0.9,4,1.6,7.9,2.6,11.7c0.4,1.5,1.1,3,1.7,4.4
	c0.7,1.5,1.5,2.9,2.2,4.4c0.3,0.7,0.5,1.4,0.6,2.1c0.1,0.7,0.3,1.1,0.9,1.3c0.6,0.2,1.3,0.6,1.8,0c1.3-1.8,3.4-1.9,5.1-2.8
	c2.7-1.4,5.5-2.6,7.9-4.6c2.3-1.9,4.7-3.7,7.2-5.7c0.3,0.3,0.8,0.8,1.4,1.3c-1.2,2.8-2.9,4.9-5.4,6.3c-3.8,2.3-7.9,4-12,5.7
	C100,224.1,98,225.3,96.1,226.4 M43.8,209.5c-5.5-1-10.4-4.5-14.7-8.4c-2-1.9-3.2-4.3-4.1-7c-0.3-1-0.8-1.9-1.5-2.7
	c-2.4-2.7-4-5.7-4.5-9.3c-0.8-6-1.1-9,0.5-14.9c12.5,10.2,16.7,9.5,22.6,9.8c-1,1.8-1,3.8-2.7,5.1c-0.6,0.5-0.7,1.2-0.3,1.9
	c0.4,0.6,0.9,1,1.6,0.7c2-0.8,3.8,0.3,6.1,0.1C41.7,192.7,42.5,201,43.8,209.5 M42.3,182.1c0.1-0.3,0.1-0.7,0.3-1.1
	c1.2-2.6,1.8-5.4,2.4-8.2c0.8-4.1,1.9-8.1,3.5-11.9c1-2.4,2.6-4.2,4.8-5.7c0.6,0.4,1.2,0.8,1.7,1.1c-1.9,3.6-3.9,6.9-5.4,10.5
	c-2.1,4.7-2.4,10.4-3.8,11.9c-0.2,0.2,0,1.1,0.2,1.6c0.2,0.5,0.6,0.9,1.3,0.9c4.2-0.1,8.7,3.9,23.7,2.8c0,0.9,0.1,1.5,0.1,2.3
	c-5.9,2.8-8.3,1.2-20.4-2C47.8,183.4,45.1,182.8,42.3,182.1 M27.7,114.8c1.9,0.7,2.7,2.5,4.3,4.1c-4.3,1.3-7.8,3.4-10.6,6.5
	c-2.8,3.1-5.2,6.4-7.2,10.4c-0.6-0.9-1.2-1.5-1.6-2.2c-2.4-4.2-3.6-8.8-4.3-13.5c-0.4-2.7,0.3-5.2,1.1-7.7c1.5-4.6-0.1-8.6,3.2-13.6
	c2.6-3.9,3.9-6.9,9.9-11.1c0.3,1.2,0.6,2.1,0.8,3.2c2.2,12.4,7.7,16.3,9.2,17.9c0.3,0.3,0.5,0.5,1.1,1c-2,0.9-3.4,2.4-5.5,2.3
	c-0.7,0-1,0.7-1.1,1.3C26.8,114,27,114.5,27.7,114.8 M30.6,114.4c-0.1-0.1-0.2-0.3-0.3-0.6c0.3-0.3,0.7-0.5,1-0.7
	c1.9-1.2,3.7-2.3,5.6-3.6c3.6-2.5,7.1-5.2,10.8-7.6c2.4-1.5,5.1-2,8.3-1.6c0.2,0.7,0.3,1.4,0.5,1.9c-3.6,1.5-7.2,2.7-10.6,4.4
	c-2.6,1.3-4.9,3.1-7.3,4.8c-1,0.7-1.9,1.7-3.2,1.8c-0.9,0.1-0.9,0.8-1,1.4c-0.2,0.6-0.3,1.3,0.4,1.5c1.3,0.5,1.7,1.7,2.3,2.6
	c1.6,2.3,3,4.8,4.9,6.8c2.7,2.9,5.5,5.8,9.1,8c-0.4,0.7-0.8,1.3-1.3,1.9c-2.8-0.7-5.2-1.9-6.9-4.1c-2.4-3-4.7-6.2-6.8-9.4
	C34.4,119.2,32.9,116.5,30.6,114.4 M63.7,83.3c-3.1,1.2-6,2.5-9.2,3c-1.3,0.2-1.5,0.8-1.2,2.2c0.8,3.1,1.4,6.2,2.2,9.3
	c-1.9,0.3-3.5,0.4-5,0.8c-2.3,0.6-4.4,1.7-6.4,3.2c-1.5,1.2-3.3,2.1-5,3.3c-1.5-0.6-2.4-1.9-2.8-3.5C34.8,95.9,33.6,89.2,31,79
	c-0.5-2-1.2-3.9-1.8-6c3.7-1.1,8.2-2.2,13.1-3.6c3.5-1,6.9-2.3,10.4-3.4c1.5-0.5,3.1-0.8,4.6-1.1c0.9-0.2,1.8-0.1,2.6,0
	c1.7,0.2,1.8,0.5,1.7,2.2c-0.2,2.3-0.3,4.6-0.3,6.9C61.1,79,62.9,81.5,63.7,83.3 M69.7,51.3c0.1,0.3,0.1,0.6,0.2,1.3
	c-1.9-0.8-4-0.3-5.5-1.8c-0.6-0.5-1.2-0.4-1.7,0c-0.5,0.4-1,1-0.6,1.6c1.3,1.8,0.5,3.8,1,6.1c-9.6-3.7-12.9-1.7-24.5,1
	c-0.3-2.1,0.5-4.2,1-6.2c1-3.5,2.7-6.7,4.7-9.8c2.4-3.7,5.4-3.9,8.9-7.7c2.3-2.6,5.1-4.8,8.6-5.6c2.5-0.5,5.9-2.6,13.5-1.8
	C70.8,38.5,68.1,42.7,69.7,51.3 M128.4,30.9c0.2-0.4,0.5-0.7,1-1.1c0.4,0.5,0.7,0.8,1,1.2c1.3,1.9,2.9,3.5,4.6,5
	c3.4,2.9,6.6,6.2,9.4,9.7c1.5,1.9,2.4,4.4,2.6,7.5c-0.6,0.3-1.3,0.6-1.8,0.8c-1.1-1.9-2.1-3.7-3.1-5.4c-2.5-4.1-5.5-7.9-9.2-11.1
	c-0.8-0.7-1.4-1.6-2-2.5c-0.6-0.9-2.4-1.4-2.8-0.4c-0.7,2-2.5,3-3.9,4.3c-2.8,2.6-5.1,5.7-7.1,8.9c-1.2,1.9-2.3,4-3.5,6.2
	c-0.5-0.2-1.2-0.5-1.9-0.9c0.1-2.8,1-5.3,2.7-7.5c2.7-3.4,5.8-6.6,9.1-9.4C125.3,34.6,127,32.9,128.4,30.9 M114.7,22
	c-3-1.6-6.1-3-9.3-4.6c0.4-0.4,0.7-1,1.3-1.4c2.9-2.1,5.7-4.5,9.2-5.5c1.2-0.4,2.3-0.9,3.5-1.4c3.5-1.3,9-0.1,9.9-0.2
	c1.9-0.1,3.7-0.3,5.6-0.4c4.6-0.3,6.8,1.5,8.7,2.2c3.4,1.1,8.2,4.6,10,6.9c-6.2,2.5-12.9,5.3-16.9,10.7c-0.9,1.2-1.7,2.5-2.6,4
	c-1-1.3-2-2.6-3-3.8c-0.2-0.2-0.2-0.6-0.2-0.9c0-0.9-0.5-1.3-1.3-1.3c-0.7,0-1.4,0.2-1.6,1.1c-0.4,2.1-2.1,3.2-3.1,5
	c-0.3-0.5-0.5-0.7-0.7-1C121.9,27.3,118.8,24.1,114.7,22 M183.5,28.5c0.8-0.1,1.8-0.3,2.7-0.2c3.4,0.1,6.7,0.7,10,1.8
	c6.4,2.3,4.9,1.7,10,6.8c0.6,0.6,1.1,1.3,1.8,1.5c1.8,0.6,3,1.9,4.4,3c2.7,2,7.2,9.9,7.9,17.8c0,0.2,0,0.4,0,0.8
	c-4.1-1.7-8.2-2.7-12.4-3.2c-5.7-0.8-9.7,1.1-11.9,1.8c0.2-2.1-0.3-4,0.7-5.9c0.8-1.5-1.3-2.8-2-2c-0.7,0.8-1.3,0.8-5.8,1.9
	C190.7,42.8,188.5,40.3,183.5,28.5 M197,65.7c1.3-1.1,2.8-1.1,4.3-0.8c2.7,0.7,5.3,1.5,8,2.3c6.1,1.8,12.1,4.1,18.4,5.3
	c0.6,0.1,1.2,0.3,1.8,0.4c-0.9,3.1-1.7,6-2.5,9c-0.7,2.8-1.3,5.7-1.9,8.6c-0.8,3.6-1.7,7.2-2.6,10.8c-0.4,1.6-1.3,3-2.8,3.9
	c-5-3.2-9.6-7.4-16.3-7c0.3-2,0.5-3.9,0.9-5.7c0.3-1.3,0.7-2.6,1.1-3.9c0.5-1.5,0.2-1.8-1.3-2.3c-2.9-0.9-5.8-1.9-8.6-2.8
	c-0.1,0-0.2-0.2-0.4-0.4C198.5,77.7,197.3,71.7,197,65.7 M133.1,65.6c-0.8-0.6-1.5-1.1-2.3-1.7c0.5-1.3,1.1-2.4,1.5-3.6
	c0.6-1.7,0.6-3.5,0.1-5.3c-0.6-2.2-1-4.4-1.6-6.9c-0.7,0-1.5-0.2-2.3-0.1c-0.3,0-0.8,0.6-0.9,1c-0.4,1.9-0.6,3.9-1.2,5.8
	c-0.8,2.6-0.3,4.9,0.7,7.2c0.2,0.5,0.5,1,0.8,1.7c-0.7,0.6-1.5,1.3-2.2,1.9c-2.6-3.9-5.7-7.1-9.2-9.8c-0.9-0.7-1.1-1.1-0.5-2.3
	c0.9-1.8,1.9-3.6,3-5.3c2-3,4.2-5.9,6.9-8.3c1.1-1,2.2-2,3.4-3.1c6,5,11,10.8,13.8,18.1C139.3,58.2,135.7,61.3,133.1,65.6
	 M143.4,57.5c0.9-0.2,1.3-0.8,2-1.3c1.4-1,2.9-1.8,4.5-2.4c2.7-1.1,5.6-2.1,8.6-3.2c1.2,2.1,2.4,4.1,3.5,6.2
	c4.6,8.6,4.4,11.3,4.8,18.9c0,0.8-0.3,1.6-0.5,2.6c-1.1-0.2-2.1-0.2-3.1-0.5c-3.9-1.1-7.9-1.8-12-0.7c-0.9,0.2-1.8,0.6-2.7,0.8
	c-2.7-6-8.3-8.1-13.4-10.8c-0.2-1.7,0.2-2,6.8-8.7C142.3,58,142.8,57.6,143.4,57.5 M129.3,61.7c-2.2-3.2-1.2-6.3-0.1-9.4
	C131,55.8,131.4,59,129.3,61.7 M117.2,58.8c1.9,1.8,3.6,3.7,5.3,5.7c1.6,1.8,1.4,2.8-0.9,3.7c-2.4,1-4.6,2.4-6.7,3.9
	c-2.2,1.6-3.7,3.6-4.9,5.9c-4.8-2.1-9.6-1.6-14.5-0.2c-3.2,1-3.7,0.7-3.7-2.7c0-2.5,0.3-5,0.5-7.4c0.1-0.8,0.6-1.6,0.9-2.5
	c0.1-0.2,0.3-0.3,0.3-0.5c0.2-4,2.1-5.8,6.5-14.2c1.9,0.7,3.8,1.4,5.6,2.1c2.2,0.9,4.4,1.9,6.6,2.8c0.5,0.2,0.9,0.7,1.3,1
	c0.3,0.3,0.6,0.5,1,0.7C115.5,57.8,116.5,58.2,117.2,58.8 M92.6,80.2c5.6-0.9,10-2.5,14.8-1.1c1.1,0.3,2.1,0.8,2.6,2
	c0.2,0.7,0.8,1,1.5,0.7c0.8-0.3,1.1-0.7,0.7-1.6c-0.4-1.2,0.1-2.2,0.7-3.2c1.6-2.4,3.8-4,6.3-5.4c1.5-0.9,3.2-1.5,4.7-2.4
	c1.8-1.1,3.5-2.4,5.4-3.7c1.7,1.1,3.4,2.3,5.1,3.4c3,1.9,7.4,3.1,11,7.6c1,1.2,1.7,2.4,1.1,4c-0.3,0.7,0.1,1.1,0.7,1.3
	c0.7,0.3,1.3,0.2,1.5-0.6c0.5-1.4,1.7-1.9,2.9-2.2c2.7-0.8,5.6-0.7,8.3,0c3.8,1,7.5,1.6,11.5,1.8c0.4,1.5,0.7,2.9,1.2,4.4
	c0.9,2.5,1.9,4.8,2.8,7.3c0.9,2.5,1.5,5,1.3,7.7c-0.1,1.3-0.3,2.5-1.6,3.3c-0.7,0.4-0.8,0.9-0.4,1.6c0.4,0.7,0.9,0.9,1.6,0.5
	c1.2-0.8,2.4-0.4,3.6,0.2c3,1.4,5.3,3.8,7.1,6.4c1.9,2.7,4,5,6.4,7.3c0.2,0.2,0.3,0.4,0.4,0.6c-0.7,1.7-1.4,3.3-2.1,5
	c-0.7,1.7-1.2,3.5-1.8,5.2c-1.1,3.5-4.1,10.1-7.7,9.4c-0.8-0.1-1.2,0.3-1.3,1c-0.1,0.8,0.1,1.2,0.9,1.4c1.4,0.3,2.1,1.3,2.6,2.5
	c1.3,3.1,1.7,6.4,1.3,9.8c-0.3,3.1-0.1,6.1,0.3,9.2c0,0.3,0,0.6,0.1,1c-1.8,0.9-3.5,1.8-5.3,2.7c-4.1,2.1-6.5,5.2-13.5,5.9
	c-0.8,0.1-1.7-0.3-2.4-0.8c-1.3-0.9-1.3-1-2.4,0.6c2.3,3,0.6,5.7-0.9,8.2c-1,1.6-2.3,3-3.5,4.5c-2.1,2.6-4.2,5.1-6.4,7.9
	c0,0-0.4,0-0.8-0.1c-9.6-2.9-12.7-1.2-18-4.8c-1.8-1.2-2.1-1.6-2.3-4.1c-0.6-0.1-1.2-0.2-1.9-0.3c-0.1,0.5-0.2,0.9-0.3,1.2
	c-0.2,3.5-6.8,5.5-10.4,5.9c-3.4,0.3-6.7,1-10,2c-0.2,0.1-0.5,0.1-0.7,0.1c-1.4-1.9-2.8-3.8-4.2-5.7c-0.8-1-1.8-1.9-2.7-2.9
	c-1.9-2.2-3.7-4.5-4.5-7.4c-0.4-1.4-0.7-2.8,0.4-4.1c0.5-0.5,0.2-1.1-0.3-1.5c-0.5-0.4-1.1-0.6-1.5,0c-1,1.4-2.3,1.3-3.7,1.1
	c-3.2-0.3-6-1.7-8.5-3.5c-2.7-1.9-5.6-3.4-8.7-4.7c-0.2-0.1-0.3-0.2-0.5-0.3c0.1-1.8,0.3-3.7,0.3-5.5c0-1.7,0-3.4-0.1-5.1
	c-0.1-3.3,0-6.5,1.5-9.6c0.6-1.1,1.2-2.1,2.6-2.3c0.9-0.1,1-0.7,0.9-1.4c-0.1-0.8-0.5-1.2-1.3-1c-1.4,0.3-2.4-0.5-3.3-1.4
	c-2.1-2.1-3.4-4.7-4.2-7.4c-1-3.6-2.4-7.1-4-10.5c-0.1-0.1,0-0.2,0-0.4c8.5-9.1,9-11.8,13.8-14.2c1.3-0.6,2.4-1,3.8-0.2
	c0.6,0.4,1.1,0.2,1.4-0.5c0.3-0.6,0.5-1.3-0.3-1.6c-1.4-0.6-1.6-1.9-1.7-3.2c-0.6-6.7,2.7-8.9,4.9-18.5c0.1-0.3,0.2-0.6,0.3-0.9
	C89.1,80.7,90.9,80.5,92.6,80.2 M175.8,79.4c2-1.1,3.6-2.5,4.5-4.7c0.8-1.8,1.8-3.5,2.8-5.2c0.4-0.7,0.5-1.3-0.3-1.8
	c-0.3-0.2-0.5-0.5-0.8-0.8c-0.5-0.4-1-0.4-1.5,0c-1.5,1.3-2.9,2.6-4.5,3.7c-2.5,1.6-3.7,4-4.3,6.7c-0.1,0.4-0.1,0.7-0.2,1.3
	c-0.9,0-1.5,0-2.2,0c-0.2,0-0.5-0.1-0.7-0.2c1.3-11.6-2.7-14.2,0.1-15.3c4.1-1.7,9.3-3.9,16.4-4.1c1.5-0.1,3-0.1,4.5-0.1
	c1.5,7.1,1.4,14.2-0.3,21.2c-0.4,1.6-0.6,1.7-2.2,1.6c-4,0-8,0-11.8,1.3c-0.3,0.1-0.7,0.1-1.2,0.2c-0.2-1-0.3-1.9-0.5-2.9
	C174.3,80.1,175,79.8,175.8,79.4 M173.6,78.1c0.4-4.4,3-5.4,6.2-7.7C178.7,74,177.5,76.9,173.6,78.1 M152.9,197
	c2.5,1.4,3.5,4,3.3,9.1C154,203.2,151.8,200.7,152.9,197 M102.6,205.7c-0.1-3.3-0.1-6.6,3.2-8.9
	C106.8,200.7,104.7,203.2,102.6,205.7 M91,65.6c-0.7,3.8-1.2,7.7-0.8,11.6c0,0.4,0.1,0.9,0.2,1.5c-1,0-2,0-2.7,0
	c-0.8-1.9-1.4-3.7-2.3-5.4c-0.5-0.9-1.3-1.6-2-2.2c-1.6-1.4-3.4-2.7-5-4.1c-1-0.8-1.4-0.3-2.5,0.7c-0.6,0.5-0.6,1-0.2,1.7
	c1.1,2,2.1,4.1,3.2,6.1c1,1.9,2.6,3.1,4.5,4c0.6,0.3,1.3,0.5,2.1,0.9c-0.2,1-0.4,1.9-0.6,3.1c-3.4-1.5-6.8-1.3-10.2-1.7
	c-0.8-0.1-1.6,0-2.5,0c-1.8,0.2-2.1,0.1-2.5-1.8c-0.4-2.1-0.7-4.3-1.1-6.4c-0.8-4.9,0-9.7,0.7-14.7c3.1,0.2,6.2,0.4,9.3,0.7
	c1.9,0.2,3.7,0.7,5.5,1.3c2,0.6,3.9,1.4,5.9,2.2C91.4,63.7,91.3,64,91,65.6 M85.1,78c-3.9-0.8-4.9-4.1-6.1-7.2
	C81.9,72.3,84.6,74.1,85.1,78 M72.6,83.7c3.2,0.1,6.4,0.6,9.6,1c0.5,0.1,1,0.5,1.8,0.8c-0.4,1-0.6,2.1-1,3c-1.1,2.2-1.9,4.5-2.4,6.8
	c-0.6,2.5-0.4,4.9,0.1,7.6c-6.1,1.7-9.4,6.8-13.1,11.8c-2.2-1.6-1.2-0.3-5-5.3c-0.6-0.8-1.2-1.6-1.8-2.5c-0.2-0.3-0.5-0.6-0.6-1
	c-0.2-2.1-1.7-3.8-2.1-5.8c-1.7-7.5-1.5-6.7-2.5-12C64.8,85.3,69.3,83.6,72.6,83.7 M58,105.7c0.7,2.3,2.4,3.9,3.6,5.8
	c1.1,1.7,2.6,3.2,4.1,5c-0.6,0.5-1.3,1.1-2,1.8c-1.2-0.8-2.3-1.6-3.4-2.2c-1.8-1-3.8-1.1-5.9-0.9c-1.6,0.2-3.3,0.2-4.9,0.1
	c-0.9,0-1.3,0.2-1.4,1.1c0,0.4-0.1,0.7-0.2,1.1c-0.1,0.7,0.1,1.2,0.9,1.4c1.8,0.6,3.6,1.2,5.3,2.1c2.5,1.3,5.1,1.3,7.7,0.5
	c0.4-0.1,0.8-0.3,1.3-0.5c0.8,0.8,1.4,1.6,1.5,2.7c-4.2,1.8-7.8,4.3-11,7.4c-0.8,0.8-1.2,0.8-2.3,0c-4.4-3.4-8.7-7.3-11.6-12.2
	c-0.7-1.3-1.6-2.4-2.4-3.8c1.2-1,2.3-2.1,3.5-3c3.7-2.7,7.6-4.9,12-6.4c1.1-0.4,2.1-0.8,3.2-1.1C57,104.3,57.6,104.5,58,105.7
	 M61.4,119.4c-3.5,1.6-6.3,0.2-9.2-1.5C56.2,116.4,59.4,117.1,61.4,119.4 M52.3,135.5c1.1-1.5,2.3-3.1,3.8-4.3
	c2.1-1.8,4.6-3.2,6.9-4.7c0.6-0.4,1.4-0.5,2-0.7c1.4,1.3,1.5,3,1.9,4.5c1,3.3,2.3,6.5,4.7,9c0.7,0.7,1.5,1.4,2.3,2.1
	c-2.9,4.3-3.2,9.2-2.7,14.3c0.4,3.3-0.1,3.9-3.3,3.2c-2.4-0.5-4.7-1.1-7-1.8c-0.9-0.3-1.6-0.9-2.4-1.4c-0.2-0.1-0.4-0.4-0.6-0.5
	c-2.6-0.5-4.4-2.3-6.4-3.9c-2-1.6-4-3.3-6.2-5.1C47.7,142.5,49.8,138.9,52.3,135.5 M71.1,161.1c-0.1,0.9-0.3,1.9-0.4,2.9
	c-1.3,0.1-2.4,0.2-3.5,0.4c-1.9,0.4-3.6,1.1-4.9,2.6c-1.3,1.5-3,2.7-4.5,4c-0.6,0.5-0.7,1-0.4,1.7c0.2,0.4,0.4,0.8,0.6,1.1
	c0.4,0.5,0.8,0.7,1.5,0.5c1.9-0.7,3.8-1.5,5.7-2c2.5-0.6,4.2-2.1,5.6-4c0.4-0.6,0.8-1.2,1.3-1.9c0.9,0.4,1.8,0.7,2.8,1.1
	c-2.2,4.2-3.2,8.5-3.8,12.9c-0.2,1.2-0.3,1.5-1.7,1.5c-2.2,0.1-4.4,0.1-6.6,0c-5-0.2-9.7-1.6-14.3-3.3c1.2-7.7,3.8-14.9,8.6-21.1
	C61.6,159.4,66.1,160.9,71.1,161.1 M69.6,166.4c-1.7,3-3.2,3.9-8.1,4.7C63.4,168,66.8,165.5,69.6,166.4 M72.9,182.6
	c0-0.5,0.1-1.1,0.1-1.6c0-0.6-0.1-1.2,0-1.7c0.8-3,1.7-6,2.6-9c0.2-0.5,0.6-1,0.9-1.5c1.1,0,2,0.5,2.8,1.1c1.9,1.6,4.1,2.7,6.4,3.7
	c2.4,1,4.8,1.5,7.6,1.2c0.3,4.5,2.6,7.9,5.3,11c0.8,0.9,1.7,1.7,2.5,2.6c0.4,0.5,0.7,1.2,1.2,2c-1,0.8-1.9,1.6-3,2.1
	c-2,1.1-4.1,1.9-6.2,2.9c-0.3,0.1-0.6,0.3-0.9,0.3c-2.2-0.1-4.2,1.2-6.4,1.2c-2.1,0-4.3,0.1-6.4,0.1c-1.6,0-3.1,0.1-4.9,0.1
	c-0.6-4.6-1.2-9-1.7-13.4C72.7,183.5,72.9,183.1,72.9,182.6 M91.7,197.9c1.6-0.5,3.2-1.2,4.7-1.8c1.4-0.6,2.9-1.3,4.3-2.1
	c1-0.5,1.8-1.3,2.9-2.1c0.5,0.8,1,1.6,1.5,2.3c-1.2,1.6-2.5,2.9-3.4,4.5c-0.6,0.9-0.8,2.1-1,3.2c-0.4,2.1-0.7,4.3-1,6.4
	c-0.2,1.3,0.6,1.3,2.7,1.9c4.7-7.2,5.9-8.1,5.6-12.6c-0.1-0.7-0.2-1.4-0.3-2.3c1-0.3,1.9-0.6,3-1c0.3,3.9,2.5,6.9,3.7,10.3
	c0.2,0.6,0.7,1.1,1.1,1.6c1.1,1.4,1.1,1.8-0.2,3.1c-1.3,1.3-2.7,2.5-4.2,3.6c-1.9,1.4-4,2.7-6.1,3.9c-2.4,1.3-5,2.4-7.6,3.6
	c-1.1-2.2-2.3-4.2-3.2-6.3c-1.9-4.3-3-8.8-3.6-13.4c0-0.4-0.1-0.8-0.1-1.1C90.4,198.7,90.7,198.2,91.7,197.9 M112.7,195.1
	c0-0.2,0-0.5,0.1-1.2c6.1-0.9,7.6-0.6,12.2-2.6c1.5-0.6,2.8-1.9,4.4-3c2.5,1.9,5.2,4.4,13.2,5c1.1,0.1,2.2,0.4,3.3,0.5
	c0.4,1.7-0.3,3.1-0.8,4.4c-2.6,6.3-3,6-4.4,7.7c-0.2,0.2-0.4,0.3-0.5,0.5c-0.5,2.3-2.5,3.4-3.9,4.8c-1.4,1.4-5.6,5.1-7.1,6
	c-3.2-2.9-6.5-5.8-9.5-8.9c-1.1-1.1-2.2-2.4-3-3.8C115,201.7,113.3,198.6,112.7,195.1 M143.2,206.3c2.1-3.6,4-7.4,4.9-11.8
	c1,0.4,1.9,0.7,2.6,0.9c0.2,5.9-0.1,6,1.4,8.6c1,1.8,2.2,3.4,3.2,5.2c0.8,1.3,0.7,1.3,2.6,0.6c1.9-0.7,0.4-0.6,0.1-7.3
	c-0.1-2.7-1.4-4.7-3.2-6.5c-0.4-0.4-0.8-0.8-1.4-1.3c0.5-0.8,1-1.7,1.5-2.7c2.6,2.6,5.9,3.6,8.8,5.1c0.9,0.5,1.9,0.7,2.8,1
	c1.3,0.4,1.6,0.6,1.4,2c-1.2,10.1-3.7,14.2-6.8,20.4c-4.1-1.7-8.3-3.1-11.8-5.9C141.6,207.9,141.8,208.7,143.2,206.3 M166.1,195.6
	c-2.8-1-5.5-2.6-8.2-4c-0.5-0.3-0.9-0.8-1.5-1.4c0.6-0.8,1.1-1.5,1.7-2.2c1.3-1.5,2.7-3,4-4.6c2-2.5,3.1-5.4,3.4-8.6
	c5.3,0.4,9.5-1.8,13.8-4.9c0.8-0.5,1.6-1,2.7-1.6c0.5,0.8,1,1.5,1.3,2.2c3,9.1,2.3,8.2,2.2,10.7c0,0.2-0.1,0.4-0.1,0.6
	c1,2.9,0.4,4.4-1.3,15.4c-9-0.3-10.3-0.3-12.6-0.5C169.6,196.7,167.8,196.2,166.1,195.6 M184.2,168.1c-0.1-0.2-0.1-0.3-0.3-0.7
	c0.9-0.3,1.7-0.7,2.7-1c0.7,1,1.2,2,2,2.8c1.4,1.4,2.9,2.6,4.9,3c1.9,0.4,3.7,1.2,5.5,1.9c0.7,0.3,1.2,0.2,1.6-0.5
	c0.3-0.7,0.7-1.3,0.9-1.8c-2-1.9-3.9-3.7-5.8-5.5c-1.3-1.3-3-1.8-4.8-2.1c-0.9-0.1-1.9-0.2-2.9-0.3c-0.1-0.9-0.3-1.8-0.4-2.9
	c4.9-0.3,9.5-1.7,14-3.4c3,2.1,7.6,12.1,8.9,21.1c-7.5,2.1-11,3.7-20.9,3.2c-1.5-0.1-1.7-0.4-1.9-1.8
	C187.1,176,186.1,171.9,184.2,168.1 M189,166.3c4-0.4,6,2.2,8.4,4.9C193.8,170.5,190.7,169.8,189,166.3 M201.3,155.2
	c-0.4,0.2-0.9,0.4-1.3,0.7c-1.5,0.9-0.2,1-9.8,3.1c-0.8,0.2-1.7,0-2.8,0c0-1.3,0-2.4,0.1-3.5c0.4-4.1,0.3-8.2-1.5-12
	c-0.3-0.7-0.8-1.4-1.2-2.2c4.3-3.2,6.1-7.6,7.4-12.5c0.3-1,0.6-1.9,0.9-2.8c1.1-0.4,2,0,2.7,0.5c2.3,1.5,4.6,3.1,6.9,4.7
	c0.2,0.1,0.3,0.2,0.4,0.4c1,1.9,3.1,2.9,4.1,4.8c1,1.8,2.3,3.5,3.3,5.3c0.9,1.5,1.7,3,2.6,4.4c-0.2,0.3-0.3,0.6-0.5,0.7
	c-3.2,2.5-6.4,5-9.6,7.5C202.5,154.7,201.9,154.9,201.3,155.2 M205.2,131.1c-3.2-3.1-6.8-5.6-11.1-7.5c0.4-0.8,0.8-1.7,1.3-2.6
	c1.1,0.3,2.2,0.6,3.3,0.8c2.1,0.4,4.1,0.1,6.1-0.9c4.6-2.3,6.5-1.7,6-3.8c-0.6-2.9-0.1-1.2-7.4-2c-4.2-0.4-6,1.6-8.4,3.1
	c-0.8-0.7-1.4-1.2-2.2-1.9c0.7-0.7,1.3-1.1,1.8-1.8c7.8-9.5,5.6-10.9,8.3-10c6.3,2,11.1,3.9,18.5,10.3c-2.5,4.4-5.3,8.5-9,12
	c-1.6,1.5-3.3,2.8-5,4.1C206.4,132,206,131.9,205.2,131.1 M197.2,119.3c2.6-2.8,5.8-2.4,9.1-1.8
	C204.5,119.8,200.5,120.6,197.2,119.3 M199.6,102.8c-1.9,3.8,1.1,0.8-6,10c-0.5,0.7-1.3,1.2-2.2,2c-3.6-4.5-5.9-8.5-10.8-10.9
	c-0.8-0.4-1.6-0.7-2.5-1.1c1.3-5.1-0.2-9.9-2.4-14.5c-0.4-0.9-0.7-2-1.1-3.2c1.4-0.4,2.5-0.8,3.7-1c2.2-0.3,4.4-0.5,6.6-0.6
	c0.9,0,1.8,0.3,2.8,0.5c0.2,0,0.4,0.2,0.5,0.2c3.8-0.4,7.1,1.4,10.5,2.6c1.4,0.5,2.9,1,4.5,1.5C199.6,104.7,200.5,101.1,199.6,102.8
	 M193.2,53.6c0.2-0.1,0.4,0,0.9,0c-0.1,3.8,0.2,7.1,0.4,8.5c0.6,4.2,1,8.5,1,12.8c0,2.9-0.7,5.1-2.7,8c-0.6-0.2-1.3-0.4-1.9-0.5
	c0.6-4,1.3-7.7,1.6-11.5c0.2-2.8-0.1-5.6-0.5-8.4c-0.2-1.7-0.5-3.3,0.2-4.8c-0.9-1-1.5-1.6-3.1-0.9c-1.4,0.7-3.3,0.4-5,0.5
	c-6.7,0.3-11.5,2.4-17.4,4.5c-0.3-0.6-0.7-1.1-1-1.8c1.9-2.3,4.3-3.6,7.1-4.1C185.5,53.9,188.1,55.1,193.2,53.6 M181.8,52.7
	c-5.9,0.7-12,0.5-16.9,5.2c-1.4-2.5-2.9-4.7-4-7.1c-0.1-0.2-0.2-0.5-0.3-0.7c-1-2.4-1-2.4-3.4-1.3c-2.6,1.2-5.3,2.2-8,3.2
	c-0.7-1.9-1.1-3.6-1.9-5.2c-1.7-3.5-4.6-6-7.2-8.8c-0.2-0.2-0.5-0.4-0.7-0.7c-0.1-0.1-0.1-0.2-0.2-0.4c0.5-1.3,1.3-2.4,2.6-3.1
	c2.1-1.1,4.3-2.2,6.5-3.1c5.9-2.3,11.8-4.8,17.5-7.5c0.7-0.3,1.4-0.9,2.1-1.3c0.3-0.2,0.7-0.2,0.8-0.2c2.4,5,4.6,9.8,7,14.6
	c1.1,2.3,2.6,4.5,3.7,6.8C182.2,48.6,182.8,50.8,181.8,52.7 M113.3,43.8c-2,2.3-3.1,5.1-3.6,8.4c-3.1-1.3-6-2.5-8.9-3.8
	c-1.4-0.6-1.8-0.5-2.5,0.8c-1.4,2.9-2.8,5.7-4.3,8.6c-6.5-4-4.6-3.3-13.2-4.7c-1-0.2-2-0.3-3-0.3c-0.9,0-1.3-0.4-1.3-1.3
	c0-0.9,0-2,0.3-2.8c1-2.5,2.1-5.1,3.4-7.5c10.1-19.3,6.8-13.7,9.5-19.6c2.8,1.3,5.4,2.6,8.1,3.8c3,1.4,6,2.6,9,3.9
	c3,1.3,6.1,2.5,9,3.9c1.6,0.7,2.9,1.8,3.5,3.7C117.4,39.3,115.3,41.5,113.3,43.8 M86.5,56C89,56.6,91,58,93,59.8
	c-0.3,0.7-0.6,1.4-0.9,2c-1.7-0.7-3.3-1.3-4.9-1.9c-5-1.9-10.1-2.9-15.4-2.9c-0.8,0-1.5-0.1-2.2-0.3c-1.8-0.6-1.8-0.6-3.1,1
	c1.1,2,0.2,4.1,0,6.1c-0.5,3.8-0.3,7.5,0.2,11.3c0.3,2.3,0.8,4.6,1.3,7.1c-0.6,0.2-1.3,0.4-2.1,0.6c-1.7-2.4-2.6-4.9-2.7-7.7
	c-0.1-4.1,0.2-8.2,0.9-12.2c0.4-2.6,0.7-5.3,0.5-8c0-0.4,0-0.9,0.1-1.4c0.4,0,0.7,0,1,0.1c2.8,0.8,5.6,0.9,8.4,1
	C78.3,54.8,82.5,55.1,86.5,56 M39.2,129.7c2.3,3.4,5.1,6.1,9.4,7.4c-1,1.8-1.8,3.5-2.8,5.1c-3.7,6-5.6,3,5.9,11.6
	c-2.5,2.2-4.5,4.5-5.4,7.5c-0.9,2.8-1.8,5.7-2.7,8.7c-1.7,0.3-3.2-0.1-4.5-1.1c-11.4-8.3-16.1-12.9-22.5-16.5
	c-0.3-0.2-0.6-0.4-0.9-0.6c0.1-0.2,0.1-0.4,0.1-0.5c3-4.3,6-8.5,8.9-12.8c1.5-2.2,2.7-4.6,4.1-6.8c1.1-1.7,2.3-3.3,3.6-4.9
	c1-1.2,1.5-1.5,3.3-1.8C36.7,126.5,38,128,39.2,129.7 M53.3,187.2c5.8,1.2,11.5,3.8,17.7,0.9c0.4,2,0.8,3.8,1,5.6
	c1,7.1-2.3,6.1,12,5.2c-1.7,6.8,1.7,12,3.9,17.7c-0.8,1.2-1.9,1.8-3.3,2c-2.6,0.3-5.3,0.6-7.9,0.8c-2.6,0.2-5.1,0.2-7.7,0.3
	c-3,0.1-5.9,0.3-8.9,0.5c-1.7,0.1-3.4,0.4-5.3,0.7c-0.2-6.9,0.4,0.2-1.9-19.1c-0.4-3.3-0.8-6.7-1.1-10
	C51.8,190.1,52.2,188.6,53.3,187.2 M120.8,212.8c2.6,2.1,5.1,4,7.2,6.4c1.1,1.3,1.6,1.3,2.6,0c2.1-2.4,4.5-4.3,7.2-6.4
	c3,6,8.8,7.9,14.1,10.7c0.3,4.1-5.6,8-10.5,12.7c-3.6,3.4-7.1,7-10.7,10.5c-0.5,0.5-1,1-1.5,1.5c-2.4-2.5-4.5-4.9-6.7-7.1
	c-1.9-1.9-4-3.7-6-5.5c-2.8-2.6-5.5-5.2-8.2-7.9c-1.1-1.1-1.7-2.5-1.7-4.3C111.9,220.7,117.8,218.9,120.8,212.8 M173.9,208.7
	c1.1-2.7,1.4-5.4,0.9-8.3c0-0.3-0.1-0.6-0.1-1.2c1.8,0,3.5-0.2,5.3-0.1c4.6,0.1,6,1.5,6.3-1.1c0.3-3.2,0.7-6.4,1.1-9.8
	c3.5,1,5.5,2,11.6,0.5c2.1-0.5,4.2-1,6.2-1.5c1.2,1.2,1.6,2.7,1.5,4.3c-0.4,6.2-1.3,11.4-2.8,24.3c-0.2,1.6-0.1,3.2-0.2,5
	c-0.6-0.1-1.2-0.1-1.8-0.2c-3.1-0.3-6.2-0.7-9.2-0.9c-13.6-0.8-19.7,0.1-22-3.1C171.7,214,172.8,211.4,173.9,208.7 M213.4,164.2
	c-1-3.8-2.6-7.3-5.8-9.8c-0.1-0.1-0.1-0.2-0.3-0.5c0.4-0.4,0.9-0.9,1.4-1.3c2.1-1.6,4.1-3.1,6.2-4.7c0.9-0.7,1-1.1,0.3-2.3
	c-1.4-2.2-2.8-4.4-4.2-6.6c-0.3-0.5-0.6-1.1-1-1.8c6.4-2,9.3-7.4,12.9-12.2c1.5,0,2.6,0.8,3.5,1.9c1.9,2.3,3.7,4.7,5,7.4
	c0.7,1.4,1.6,2.7,2.4,4.1c2,3,4,6.1,6,9.1c1,1.4,2.1,2.7,3.3,4.4c-1.3,0.8-2.6,1.5-3.8,2.4c-2.2,1.6-4.4,3.2-6.6,4.8l-12.5,9.6
	c-1.6,1.2-3.3,1.8-5.2,1.4C214.6,168,213.9,166.1,213.4,164.2 M215.7,131.3c-1.8,2.1-4.1,3.4-6.9,4.1c-0.4-0.7-0.7-1.3-1-1.7
	c3-2.8,6.1-5.3,8.8-8.2c1.9-2,3.3-4.5,4.9-6.8c0.7-0.9,1.4-1.8,2.2-2.5c0.7-0.6,0.7-1.1,0.6-1.8c-0.1-0.7-0.4-1.1-1.1-1.3
	c-0.9-0.3-1.8-0.7-2.5-1.3c-6.6-5.6-12.2-7.3-18.5-9.6c0.1-0.6,0.3-1.3,0.5-2c2.9-0.3,5.6,0,8,1.6c3.4,2.2,6.7,4.5,10,6.9
	c2.1,1.5,4.1,3.2,6.5,4.3c0.4,0.2,0.7,0.5,1.2,0.8c-0.3,0.4-0.5,0.8-0.8,1.1c-1.7,1.7-3.1,3.7-4.3,5.8
	C221.1,124.4,218.6,128,215.7,131.3 M231,114.8c0.7-0.2,0.9-0.9,0.8-1.6c-0.1-0.7-0.4-1.3-1.2-1.3c-2.1,0.1-3.5-1.5-5.5-2.2
	c0.9-0.8,1.5-1.5,2.2-2.1c3-2.5,4.9-5.8,6.1-9.5c1.1-3.4,2-6.8,3-10.3c0.7,0.5,1.5,1,2.2,1.6c3.6,3.1,6.3,6.9,8.4,11.1
	c1.2,2.4,1.5,5,1.6,7.6c0,1.5,0.3,2.9,0.8,4.3c1.1,3.4,1.7,6.9,0.5,10.5c-0.5,1.5-0.6,3.1-1.1,4.6c-0.9,2.9-2.3,5.6-4.2,8.2
	c-0.6-1-1.3-1.7-1.7-2.6c-1.2-2.6-3.2-4.7-5-6.9c-2.6-3.2-5.8-5.4-9.7-6.8c-0.4-0.1-0.7-0.3-1-0.5c0,0-0.1-0.1-0.2-0.3
	C228.3,117.4,229,115.5,231,114.8 M182.6,23.2c7.3,0.7,8.9,1.2,19.2,3c1.2,0.2,2.4,0.4,3.6,1.2c1.3,0.8,2.6,1.6,3.5,2.9
	c3.3,4.9,8.1,4.1,10.2,10.3c2.3,6.8,2.8,7.2,4.9,14c0.5,1.6,1.1,3.1,1.5,4.7c0.3,1,0.3,2.1,0.4,3.4c-0.9-0.3-1.6-0.5-2.2-0.8
	c-0.3-0.2-0.7-0.6-0.8-1c-2.7-10.1-4.6-19.9-14.2-24.3c-1.1-0.5-4-6.5-11.6-8.3c-2.3-0.5-4.5-1.3-6.8-1.7c-2-0.3-4-0.2-6-0.3
	c-1-0.1-2.1,0.1-2.9-0.4c-0.8-0.4-1.2-1.5-2.1-2.6C180.8,23.3,181.7,23.1,182.6,23.2 M166.2,16.5c1.8-0.8,3.5-1.6,5.4-2.5
	c1.6,3.1,3,6.1,5.1,8.8c2.6,3.3,5,6.9,7,10.6c5.4,10.1,3.8,14.6,3.2,19.2c-1,0-1.7,0-2.6,0.1c0-5.3-0.5-5.2-6.1-16.2
	c-2.2-4.3-4.2-8.7-6.3-13.1c-0.5-1-0.8-2.2-1.2-3.2c-0.5-1.1-1-1.3-2.1-0.8c-13.8,7-10.1,5.1-26.5,12.2c-1.8,0.8-3.1,2.1-4.4,3.9
	c-0.7-0.5-1.3-1-2-1.6C141.2,19.8,163.1,17.8,166.2,16.5 M102.6,13.2c1.3-0.6,2.4-1.7,3.6-2.5c1.2-0.8,2.4-1.4,3.5-2.1
	c11-6.6,9.2-6.2,14.7-6.6c1-0.1,2,0.3,3,0.5c4,0.8,7.6-2.1,12.6,0.7c14.9,8.5,9.6,5.5,14.3,8.7c0.8,0.5,1.5,1.2,2.4,1.5
	c1.2,0.5,2,1.3,2.6,2.4c-2.3,1.8-2.2,1.2-9-3.9c-0.7-0.5-1.4-1.1-2.2-1.4c-5.9-2.8-10.8-5.5-18.1-3.4c-1.3,0.4-6.9-2.3-14,1.1
	c-1.3,0.6-2.6,1.2-4,1.7c-2.7,1.1-4.6,3.2-7,4.8c-0.9,0.6-1.6,1.4-2.6,1.9c-1.1,0.6-2-0.2-3.1-0.7C100.2,14.6,101.3,13.8,102.6,13.2
	 M83.2,21.2c0.5-0.7,0.4-0.6,3.9-7.2c8.6,3.9,4.4,2,10.7,3.7c5.8,1.5,15.1,3.6,21.6,10.3c1.1,1.1,1.9,2.5,2.8,3.9
	c1.2,1.9,1.1,2.1-0.8,3.3c-0.1,0-0.3,0-0.3-0.1c-2.8-3.6-6.9-5-10.9-6.6c-20.3-8.3-16.2-7.3-19.6-9c-2.6-1.3-1.8,0.1-4.8,6.8
	c-0.9,2-1.9,3.9-2.9,5.8c-2.4,4.7-4.7,9.3-7.1,14c-1,2-1.4,4.1-1.1,6.5c-1,0-1.7,0-2.5,0c-0.9-2.2-1-4.5-0.9-6.7
	c0.3-4.6,1.9-8.7,4-12.7C77.4,28.9,80.4,25.1,83.2,21.2 M34.5,54.8c1.8-5.1,3.4-10.3,5.4-15.3c2-5.1,4.8-2.9,10.6-10.1
	c1.3-1.5,3-2.6,5-3c13.5-2.8,15.2-2.5,17-2.7c3.9-0.4,3.3-1.2,6.4-0.2c-0.6,1.3-0.9,2.5-2.7,2.4c-8.2-0.1-13.6,1.5-18,3.5
	c-3,1.4-5.6,3.4-7.5,6.3c-0.8,1.2-7.2,3-10.1,10.3c-0.9,2.1-2.1,4.1-2.8,6.3c-0.7,1.9-0.9,4-1.3,5.9c-0.9,4.1-0.8,3-3.7,4.6
	C32.9,60.4,32.5,60.5,34.5,54.8 M28.1,67.2c0.8-0.2,1.5-0.7,2.2-1c1.7-0.8,3.3-1.5,5-2.3c0.8-0.4,1.6-1,2.5-1.4
	c7.5-3.3,17.7-6,24.6-1.6c0,0.3,0,0.7-0.1,1.1c-0.1,0.4-0.2,0.7-0.3,1.4c-3.6-1.3-6.8-0.1-10,0.9c-4.4,1.3-8.7,3-13.1,4.4
	C28.4,71.7,26,70,27.1,73.5c0.6,1.8,1.4,3.4,1.8,5.2c3.4,14.7,4.1,20.1,5.8,24.3c0.5,1.3,1.5,2.4,2.3,3.7c-1.6,1.7-1.9,1.7-3.5,0.3
	c-6.3-5.3-9-16.3-9-23c0-1.5-0.5-3-0.5-4.6c0.1-3.4-0.9-6.5-1.7-9.7c-0.1-0.2,0-0.5,0-0.8C24.2,68.3,26.2,67.8,28.1,67.2 M2.8,120.6
	c-0.6-1.5-0.7-2.9-0.7-4.5c0-4.2,2.1-4,2-11.4c0-2.3,0.7-4.3,2.2-6.1c10.2-12.5,6.7-8.5,10.9-12.7c0.5-0.5,1.2-1,1.6-1.6
	c0.8-1.3,1.8-2.2,3.4-2.9c0.7,3.7,1,2.1-4.7,7.8c-1.2,1.2-2.4,2.3-3.3,3.6c-1.8,2.6-3.8,5.1-4.8,8.2c-0.8,2.6-1.4,5.3-1,8.1
	c0.1,0.4-0.1,1-0.3,1.4c-1.7,4.1-2.3,8.3-1,12.7c0.2,0.7,0.3,1.4,0.4,2.1c0.7,4.7,3.9,9.6,5.4,12.9c0.5,1-0.4,2-1.2,3.3
	C8.2,136.6,11.1,141.6,2.8,120.6 M7.5,153.1c1.1-1.6,2.3-3.1,3.2-4.7c0.7-1.2,4.6-10.8,7.7-15.7c3.6-5.9,8.1-10.4,14.8-11.9
	c0.4,0.8,0.8,1.4,1.1,1.9c-0.1,0.2-0.1,0.3-0.2,0.4c-4,2.1-5.9,6-8.2,9.6c-3.1,4.7-6.1,9.5-9.2,14.3c-0.9,1.4-2.1,2.6-3.1,3.9
	c-1,1.3-0.9,1.8,0.5,2.5c8.1,4.4,16.9,12.9,24.8,17.8c1.1,0.7,2.6,0.8,4,1.3c-0.1,0.6-0.2,1.4-0.3,2.2c-4.1,1.6-15.7-1.7-23.9-11.5
	C13.9,157.3,9.4,154.5,7.5,153.1 M25.6,205.3c-2.8-1.6-4.6-3.9-5.5-7c-1.5-5.1-5.9-6.3-5.9-12.3c0-19.3-0.3-8.5,0.3-16.8
	c0.3-3.8-0.5-3.7,0.9-6.5c2.4,1.9,2.3,1.3,1.8,5.5c-0.4,3-1,5.9-0.6,8.9c0.2,2,0.3,4,0.7,5.9c0.8,3.8,2.5,7.2,5.3,10
	c0.3,0.3,0.4,0.7,0.6,1.1c1.3,4.3,3.6,8,7.4,10.5c2,1.4,4,2.9,6.1,4.2c1.6,1,5.6,2.4,7.7,3.5c1.1,0.5,1,2.2,1.1,2.9
	C42.9,215.5,42.4,214.7,25.6,205.3 M59.7,227.1c-3.3-0.8-6.5,0.1-9.9,0c-0.2-1.8-0.3-3.6-0.5-5.5c-0.4-3.8-4.2-12.2-4.4-19.1
	c0-2.6-0.1-5.2,0.2-7.8c0.4-3.3,1.7-6.2,3.7-9c0.8,0.3,1.5,0.5,2.7,0.9c-0.2,0.3-0.5,0.5-0.6,0.8c-0.8,1.6-1,3.3-0.8,5
	c0.4,3.4,0.7,6.8,1.2,10.3c0.8,5.9,1.8,11.7,1.7,17.7c-0.1,3,0.3,3,2.9,2.6c1.4-0.2,2.7-0.5,4.1-0.7c3.1-0.3,6.2-0.4,9.3-0.6
	c4.3-0.2,8.7-0.4,13-0.6c2.4-0.1,4.7-0.7,6.9-2.3c0.4,0.5,0.6,0.7,0.7,1c0.2,0.4,0.4,0.8,0.6,1.2c-2.1,2.4-4.6,4.1-7.5,5.1
	c-3.7,1.3-7.6,1.9-11.5,1.9c-2.3,0-4.5-0.1-6.8-0.5C63,227.2,61.2,227.5,59.7,227.1 M114.8,251.7c-1.2,0.1-2.4,0.7-3.7,0.9
	c-4.8,0.9-9.6,1.8-14.3,2.7c-3.1,0.6-5.9,0.1-8.5-1.7c-4.4-3-8.6-1-12.5-5.7c-2.6-3.1-5.2-6.2-7.8-9.3c-0.8-1-1.5-2.2-2.3-3.3
	c-0.6-0.9-1.1-1.9-1.9-2.6c-1-0.9-1.3-2-1.8-3.1c1.9-0.8,2.5-0.7,3.5,0.8c1.6,2.3,3.2,4.7,4.8,7c0.4,0.6,0.8,1.1,1.4,1.6
	c1.9,1.8,3.8,3.8,5.9,5.4c2.7,2,5.7,3.2,9.1,3.4c1.7,0.1,5.6,4.5,13.5,3.8c5.4-0.5,4.3,0.5,12.6-2.4c4.2-1.5,4.3-0.9,5.8,0.8
	C117.4,251.1,116.2,251.6,114.8,251.7 M134,251.9c-1.6,1.3-3,2.9-4.6,4.4c-1.2-1.1-2.5-2.3-3.8-3.5c-5.3-4.9-11.3-6.8-17-13.6
	c-1.3-1.6-2.5-3.3-3.8-5c-1.4-2-1.9-4.3-2.4-6.6c-0.6-2.7,0-2.8,2.1-3.1c0.2,0.4,0.4,0.9,0.5,1.3c0.5,1.3,1.2,2.5,2.2,3.5
	c2.8,3.1,6,5.6,9,8.5c3.9,3.7,8.1,7.2,11.3,11.5c1.5,2,2.2,1.5,2.8,0.8c1.3-1.4,2.4-2.8,3.7-4.1c8.6-8.7,14.8-13.3,17.8-17.1
	c1-1.3,1.6-2.8,2.5-4.4c0.5,0.2,1.2,0.4,2.1,0.7c-0.1,7.2-4.7,12.9-10,17.7C142.1,246.8,140.8,246.5,134,251.9 M194.9,232.9
	c-0.9,0.9-1.5,2.2-2.4,3.2c-3.1,3.8-6.1,7.6-9.3,11.4c-0.7,0.9-1.6,1.6-2.5,2.3c-1.6,1.3-3.5,1.7-5.5,2c-1.7,0.2-3.2,0.8-4.6,1.7
	c-5,3.5-8.7,2.1-23.2-0.8c-5.9-1.2-5.6-1.5-7.6-2.4c2.7-2.5,1.4-2.5,9.9,0.4c0.7,0.2,1.3,0.5,2,0.5c4.5,0.4,9,1.3,13.5-0.2
	c2-0.7,4-1.2,5.5-2.8c0.3-0.3,0.8-0.2,1.2-0.3c4.4-0.6,8.3-2.2,11.4-5.4c7-7.3,4-3.6,8.2-10.1c2.2-3.4,1.8-3.3,4.7-2.9
	C196.3,230.8,195.8,231.9,194.9,232.9 M210.8,216.6c-0.4,1.5-1,3-1.3,4.6c-0.3,1.9-0.4,3.9-0.6,5.9c-2-0.1-3.9-0.3-5.8-0.4
	c-5.2-0.2-23.5,5-33.9-4.9c-0.3-0.3-0.5-0.6-0.8-0.9c0.4-0.7,0.7-1.3,1-2c0.2,0,0.4-0.1,0.5,0c5.5,4.2,18.9,1.3,33.4,4
	c0.4,0.1,0.8,0.2,1.1,0.2c0.8,0,1.3-0.4,1.4-1.2c0-0.9,0-1.8,0.1-2.7c0.3-3.5,0.5-7,0.9-10.5c0.6-5.1,1.3-10.2,1.9-15.4
	c0.2-2,0.2-4-0.7-5.8c-0.1-0.3-0.1-0.6-0.2-1.1c0.7-0.2,1.4-0.5,2.1-0.7c1.6,1.8,2.6,3.9,3.2,6.1c1.3,4.5,1.2,9.1,0.4,13.7
	C212.6,209.2,211.7,212.9,210.8,216.6 M244.5,187c-0.2,4.6-4.1,6-6.6,13.3c-1.2,3.5-2.9,4.1-16.6,11.8c-1.8,1-3.5,1.9-5.4,2.8
	c-0.8,0.4-1.7,0.5-2.8,0.7c0.2-1,0.3-1.8,0.5-2.5c0.1-0.3,0.4-0.7,0.7-0.8c2-0.9,3.9-1.9,6-2.6c2.6-0.9,4.8-2.5,6.9-4.2
	c2.8-2.2,6.4-4.6,8.3-11.2c0.1-0.5,0.5-1,0.8-1.4c3-3.3,4.9-7.1,5.2-11.6c0.8-11,0.7-5.9-0.2-13.1c-0.5-4-0.5-3.9,1.7-5.2
	c0.7,0.8,0.9,1.8,1,2.8C244.4,170.6,244.7,181.7,244.5,187 M248.4,148.9c0.9,1.4,1.8,2.9,2.7,4.3c-1.8,1.3-3.6,2.5-5.3,3.9
	c0,0-4.9,5.4-8.8,9.2c-1.9,1.8-6.4,5-8.5,6c-5.7,2.9-8.6,2.5-12.4,2.6c-0.2-1-0.3-1.8-0.4-2.3c1.9-0.7,3.7-1.1,5.2-2.1
	c4.2-2.8,12.4-9.5,17.5-13.2c2-1.4,4-2.6,6.1-3.9c1.4-0.9,1.5-1.3,0.5-2.7c-1.8-2.4-3.7-4.7-5.4-7.2c-2.8-4.3-5.4-8.8-8.2-13.1
	c-1.2-1.9-2.5-3.7-4-5.3c-0.8-0.9-2-1.5-3.3-2.3c0.4-0.6,0.8-1.3,1.2-2.1c3.5,0.7,6.4,2.3,8.9,4.7c2.6,2.5,4.9,5.2,6.6,8.4
	c1.3,2.5,2.6,5.1,3.8,7.7c0.7,1.4,1.2,2.9,1.9,4.3C247.2,146.8,247.8,147.9,248.4,148.9 M247.1,141.2c-0.4-0.6-0.9-1-1.1-1.6
	c-0.2-0.4-0.2-1,0-1.4c0.9-2,1.9-3.9,2.7-5.8c0.7-1.6,1.5-3.2,2-4.9c0.6-1.8,1-3.6,1.3-5.4c0.8-4,0.2-7.9-1.4-11.6
	c-0.2-0.4-0.3-0.8-0.3-1.2c0.4-3.9-0.3-7.5-2.3-10.9c-1.6-2.8-3.1-5.6-5.4-7.8c-1-1-2-1.9-3-2.9c-1-1-2.1-1.9-3.1-3
	c-0.3-0.3-0.4-0.8-0.4-1.2c0-0.6,0.2-1.2,0.4-2.1c1.5,0.6,2.4,1.4,3.3,2.5c1,1.3,2.4,2.5,3.5,3.8c2.9,3.4,5.7,6.8,8.6,10.2
	c0.9,1.1,1.6,2.2,2.1,3.6c0.5,1.3,0.8,2.6,0.7,3.9c-0.2,2.8,0.6,5.3,1.4,7.8c0.7,2.1,0.7,4.3-0.1,6.5c-1.4,3.8-2.6,7.6-4,11.4
	c-0.5,1.3-1.1,2.6-1.7,3.9c-0.5,1-1,2.1-1.3,3.1C248.7,139.4,248,140.3,247.1,141.2"/>
</svg>
