<?xml version="1.0" encoding="utf-8"?>
<!-- Generator: Adobe Illustrator 23.0.0, SVG Export Plug-In . SVG Version: 6.00 Build 0)  -->
<svg version="1.1" id="Isolation_Mode" xmlns="http://www.w3.org/2000/svg" xmlns:xlink="http://www.w3.org/1999/xlink" x="0px"
	 y="0px" viewBox="0 0 239.6 138.8" style="enable-background:new 0 0 239.6 138.8;" xml:space="preserve">
<style type="text/css">
	.st0{fill:#BC822E;}
	.st1{fill-rule:evenodd;clip-rule:evenodd;fill:#BC822E;}
</style>
<path class="st0" d="M8.8,100.2c2.9,0,5.3,1,7.4,3c2,2,3.1,4.4,3.1,7.2c0,2.8-1,5.2-3.1,7.2c-2,2-4.5,3-7.4,3H0.3v-20.3H8.8z
	 M8.8,102H2.2v16.6h6.6c2.4,0,4.4-0.8,6-2.4c1.7-1.6,2.5-3.6,2.5-5.9c0-2.3-0.8-4.2-2.5-5.9C13.2,102.8,11.2,102,8.8,102
	 M24.9,120.5H23v-20.3h1.9V120.5z M44.3,115.5l-6.1-12.7l-6.1,12.7H44.3z M45.2,117.4h-14l-1.5,3.1h-2.1l9.8-20.3H39l9.8,20.3h-2.1
	L45.2,117.4z M61.5,114.6l-8-10.8v16.7h-1.9v-20.3h1.6l9.2,12.3l9.1-12.3h1.6v20.3h-1.9v-16.8l-8,10.9H61.5z M88,99.5
	c3.1,0,5.7,1,7.8,3.2c2.2,2.1,3.2,4.6,3.2,7.6c0,3-1.1,5.5-3.2,7.6c-2.2,2.1-4.8,3.2-7.8,3.2c-3.1,0-5.7-1.1-7.9-3.2
	c-2.2-2.1-3.2-4.6-3.2-7.6c0-3,1.1-5.5,3.2-7.6C82.3,100.6,84.9,99.5,88,99.5 M88,101.4c-2.6,0-4.7,0.9-6.5,2.6
	c-1.8,1.7-2.7,3.8-2.7,6.3c0,2.5,0.9,4.6,2.7,6.3c1.8,1.7,4,2.6,6.5,2.6c2.5,0,4.7-0.9,6.5-2.6c1.8-1.7,2.7-3.8,2.7-6.3
	c0-2.5-0.9-4.6-2.7-6.3C92.7,102.3,90.5,101.4,88,101.4 M102.8,100.2h1.4l13.1,16.7v-16.7h1.9v20.3h-1.4l-13.1-16.6v16.6h-1.9V100.2
	z M132.9,100.2c2.9,0,5.3,1,7.4,3c2,2,3.1,4.4,3.1,7.2c0,2.8-1,5.2-3.1,7.2c-2,2-4.5,3-7.4,3h-8.5v-20.3H132.9z M132.9,102h-6.6
	v16.6h6.6c2.4,0,4.4-0.8,6-2.4c1.7-1.6,2.5-3.6,2.5-5.9c0-2.3-0.8-4.2-2.5-5.9C137.3,102.8,135.3,102,132.9,102 M169.1,103.6
	c-0.6-0.6-1.3-1.1-2.3-1.6c-1-0.4-2-0.7-3.1-0.7c-1.5,0-2.7,0.4-3.6,1.1c-0.9,0.7-1.3,1.6-1.3,2.5c0,0.9,0.3,1.6,1,2.3
	c0.7,0.7,1.5,1.1,2.4,1.4l5.2,1.4c1.2,0.4,2.3,1,3.1,1.9c0.8,0.9,1.2,2,1.2,3.4c0,1.5-0.7,2.8-2,4c-1.3,1.1-3.2,1.7-5.5,1.7
	c-1.9,0-3.5-0.4-4.9-1.2c-1.4-0.8-2.5-1.8-3.3-3.1l1.6-1c0.7,1.1,1.7,2,2.9,2.6c1.2,0.6,2.4,0.9,3.6,0.9c1.9,0,3.3-0.4,4.2-1.2
	c0.9-0.8,1.4-1.7,1.4-2.7c0-0.8-0.3-1.6-0.8-2.2c-0.5-0.6-1.3-1.1-2.3-1.3l-4.9-1.3c-1.4-0.4-2.6-1.1-3.5-2.1
	c-0.9-1-1.4-2.1-1.4-3.4c0-1.5,0.6-2.7,1.9-3.8c1.3-1.1,2.9-1.6,5-1.6c1.6,0,3,0.3,4.2,0.9c1.2,0.6,2.2,1.3,3,2.1L169.1,103.6z
	 M237.1,103.6c-0.6-0.6-1.3-1.1-2.3-1.6c-1-0.4-2-0.7-3.1-0.7c-1.5,0-2.7,0.4-3.6,1.1c-0.9,0.7-1.3,1.6-1.3,2.5c0,0.9,0.3,1.6,1,2.3
	c0.7,0.7,1.5,1.1,2.4,1.4l5.2,1.4c1.2,0.4,2.3,1,3.1,1.9c0.8,0.9,1.2,2,1.2,3.4c0,1.5-0.7,2.8-2,4c-1.3,1.1-3.2,1.7-5.5,1.7
	c-1.9,0-3.5-0.4-4.9-1.2c-1.4-0.8-2.5-1.8-3.3-3.1l1.6-1c0.7,1.1,1.7,2,2.9,2.6c1.2,0.6,2.4,0.9,3.6,0.9c1.9,0,3.3-0.4,4.2-1.2
	c0.9-0.8,1.4-1.7,1.4-2.7c0-0.8-0.3-1.6-0.8-2.2c-0.5-0.6-1.3-1.1-2.3-1.3l-4.9-1.3c-1.4-0.4-2.6-1.1-3.5-2.1
	c-0.9-1-1.4-2.1-1.4-3.4c0-1.5,0.6-2.7,1.9-3.8c1.3-1.1,2.9-1.6,5-1.6c1.6,0,3,0.3,4.2,0.9c1.2,0.6,2.2,1.3,3,2.1L237.1,103.6z
	 M177.9,102h-6v-1.8h13.9v1.8h-6v18.5h-1.9V102z M200.1,115.5l-6.1-12.7l-6.1,12.7H200.1z M201,117.4h-14l-1.5,3.1h-2.1l9.8-20.3
	h1.6l9.8,20.3h-2.1L201,117.4z M214.6,102h-5.4v11.7h5.4c1.7,0,3.1-0.6,4.3-1.7c1.2-1.1,1.8-2.5,1.8-4.1c0-1.6-0.6-3-1.8-4.1
	C217.7,102.6,216.3,102,214.6,102 M217,115.2c-0.8,0.2-1.6,0.3-2.4,0.3h-5.4v4.9h-1.9v-20.3h7.3c2.2,0,4,0.8,5.6,2.2
	c1.5,1.5,2.3,3.3,2.3,5.4c0,2.1-0.8,4-2.3,5.4c-0.5,0.5-1,0.8-1.5,1.2l3.2,6h-2.1L217,115.2z"/>
<path class="st0" d="M81.3,129.7v3.6h3.3c0.5,0,0.9-0.2,1.3-0.5c0.4-0.4,0.5-0.8,0.5-1.3c0-0.5-0.2-0.9-0.5-1.3
	c-0.3-0.4-0.8-0.5-1.3-0.5H81.3z M81.3,134.3v3.6h3.6c0.5,0,0.9-0.2,1.3-0.5c0.3-0.4,0.5-0.8,0.5-1.3c0-0.5-0.2-0.9-0.5-1.3
	c-0.4-0.4-0.8-0.5-1.3-0.5H81.3z M80.4,128.8h4.2c0.8,0,1.4,0.3,1.9,0.8c0.5,0.5,0.8,1.2,0.8,1.9c0,0.8-0.3,1.4-0.8,1.9
	c-0.1,0.1-0.2,0.2-0.3,0.2c0.2,0.1,0.4,0.3,0.6,0.5c0.5,0.5,0.8,1.2,0.8,1.9c0,0.8-0.3,1.4-0.8,1.9c-0.5,0.5-1.2,0.8-1.9,0.8h-4.5
	V128.8z M100.6,128.8v0.9h-5.1v3.6h3.9v0.9h-3.9v3.6h5.1v0.9h-6v-10H100.6z M107.3,128.8h0.7l6.3,8.2v-8.2h0.9v10h-0.7l-6.3-8.2v8.2
	h-0.9V128.8z M128.8,129.7H126v-0.9h6.6v0.9h-2.9v9.1h-0.9V129.7z M142.1,129.7h-2.6v5.7h2.6c0.8,0,1.5-0.3,2-0.8
	c0.6-0.6,0.8-1.2,0.8-2c0-0.8-0.3-1.5-0.8-2C143.6,130,142.9,129.7,142.1,129.7 M143.3,136.2c-0.4,0.1-0.7,0.2-1.1,0.2h-2.6v2.4
	h-0.9v-10h3.5c1,0,1.9,0.4,2.7,1.1c0.7,0.7,1.1,1.6,1.1,2.7c0,1-0.4,1.9-1.1,2.7c-0.2,0.2-0.5,0.4-0.7,0.6l1.5,3h-1L143.3,136.2z
	 M158.9,128.8v0.9h-5.1v3.6h3.9v0.9h-3.9v3.6h5.1v0.9h-6v-10H158.9z"/>
<rect y="123.7" class="st1" width="238.9" height="0.7"/>
<path class="st1" d="M130.8,21.4l23-7.3l-7.3,23l21.4,11.1l-21.4,11.1l7.3,23l-23-7.3l-11.1,21.4l-11.1-21.3l-23.3,7.4l7.4-23.2
	L71.4,48.2l21.3-11L85.4,14l23.3,7.4L119.7,0L130.8,21.4z M119.6,30.7l9.3-7.7l-9.3-17.8L110.4,23L119.6,30.7z M131,23.8l1.1,12
	l12,1.1l6.1-19.2L131,23.8z M144.9,39l-7.7,9.2l7.7,9.3l17.8-9.3L144.9,39z M144,59.5l-12,1.1l-1.1,12l19.2,6.1L144,59.5z
	 M128.9,73.4l-9.3-7.7l-9.3,7.7l9.3,17.8L128.9,73.4z M108.2,72.7l-1.1-12.1l-11.9-1.2l0,0.1L89,78.8L108.2,72.7z M94.4,57.4
	l7.7-9.2l-7.8-9.3l-17.8,9.2L94.4,57.4z M95.2,36.9l11.9-1.1l1.1-12.1L89,17.6l6,19L95.2,36.9z M129.6,24.3L129.6,24.3L129.6,24.3
	l-9.4,7.8l0,0l3,6.7l7.5-2.7L129.6,24.3z M109.8,24.3l-0.1,0.2l-0.2-0.1l-1,11.3l0,0.4l7.5,2.7l3-6.7l0,0l-0.4-0.3L109.8,24.3z
	 M95.7,38.2l-0.1,0.1l7.6,9.1l0.2,0.1l6.7-3l-2.6-7.4L95.7,38.2z M95.7,58.1L95.7,58.1L95.7,58.1l11.8,1.2l2.7-7.4l-6.7-3l-0.2,0.1
	L95.7,58.1z M109.5,72.1l0.2-0.1l0.1,0.2l9.2-7.7l-3-6.8l-7.5,2.6L109.5,72.1z M129.5,72.1L129.5,72.1L129.5,72.1l1.1-11.4l-0.1,0
	l-0.1-0.6l-7.3-2.6l-2.8,6.9L129.5,72.1z M143.5,58.1L143.5,58.1L143.5,58.1l-7.3-8.8l-0.3-0.4l-6.9,2.8l2.7,7.5L143.5,58.1z
	 M143.6,38.4L143.6,38.4L143.6,38.4l-11.9-1.1l-2.7,7.5l6.9,2.8l0.3-0.4L143.6,38.4z M119.5,33.3l-3,6.8l-7.9-2.8l2.8,7.9l-7,3.1
	l7,3.1l-2.8,7.8l7.9-2.7l3.1,7l2.9-7.2l7.9,2.8l-2.8-7.9l7.2-2.9l-7.2-2.9l2.8-7.9l-7.9,2.8L119.5,33.3z"/>
<path class="st1" d="M119.7,96.4c19.2-25.4,19.7-47.1,3.7-50.4c-11.5-2.4-12.5-12.5-10.3-23.3c1.3-6.5,3.4-11.9,6.7-17.6
	c0.9-1.6-0.6-3.4,0-5.1c-14.4,18.8-20.9,45.8,1.7,51c15.2,3.5,7.9,23.7,0.1,36.8C119.8,90.6,120.6,94.4,119.7,96.4"/>
</svg>
